<?xml version="1.0" encoding="iso-8859-1"?>
<!-- Generator: Adobe Illustrator 19.0.0, SVG Export Plug-In . SVG Version: 6.00 Build 0)  -->
<svg version="1.1" id="Layer_1" xmlns="http://www.w3.org/2000/svg" xmlns:xlink="http://www.w3.org/1999/xlink" x="0px" y="0px"
	 viewBox="0 0 365.316 365.316" style="enable-background:new 0 0 365.316 365.316;" xml:space="preserve">
<g>
	<path style="fill:#333E48;" d="M287.84,20c0-11-9-20-20-20H97.477c-11,0-20,9-20,20v325.316c0,11,9,20,20,20H267.84
		c11,0,20-9,20-20V20z"/>
	<rect x="77.477" y="36.308" style="fill:#005CB9;" width="210.363" height="285.343"/>
	<g>
		<path style="fill:#FFFFFF;" d="M241.25,208.13c11.62-13.519,18.658-31.089,18.658-50.313c0-42.664-34.586-77.25-77.25-77.25
			s-77.25,34.586-77.25,77.25s34.586,77.25,77.25,77.25c11.525,0,22.45-2.542,32.274-7.067c8.035,5.003,17.516,7.901,27.679,7.901
			c5.939,0,11.64-1.002,16.962-2.82C251.187,226.858,244.741,218.185,241.25,208.13z"/>
		<g>
			<path style="fill:#333E48;" d="M210.289,130.941h-55.262c-2.485,0-4.5-2.015-4.5-4.5s2.015-4.5,4.5-4.5h55.262
				c2.485,0,4.5,2.015,4.5,4.5C214.789,128.927,212.775,130.941,210.289,130.941z"/>
			<path style="fill:#333E48;" d="M227.052,151.858h-88.787c-2.485,0-4.5-2.015-4.5-4.5s2.015-4.5,4.5-4.5h88.787
				c2.485,0,4.5,2.015,4.5,4.5C231.552,149.844,229.537,151.858,227.052,151.858z"/>
			<path style="fill:#333E48;" d="M218.484,172.774h-71.652c-2.485,0-4.5-2.015-4.5-4.5s2.015-4.5,4.5-4.5h71.652
				c2.485,0,4.5,2.015,4.5,4.5C222.984,170.76,220.97,172.774,218.484,172.774z"/>
			<path style="fill:#333E48;" d="M210.289,193.691h-55.262c-2.485,0-4.5-2.015-4.5-4.5s2.015-4.5,4.5-4.5h55.262
				c2.485,0,4.5,2.015,4.5,4.5C214.789,191.677,212.775,193.691,210.289,193.691z"/>
		</g>
	</g>
	<circle style="fill:#5C6670;" cx="182.658" cy="342.816" r="10"/>
	<g>
		<circle style="fill:#5C6670;" cx="182.658" cy="12.896" r="5.06"/>
		<circle style="fill:#1E252B;" cx="182.658" cy="12.896" r="2.913"/>
	</g>
	<path style="fill:#5C6670;" d="M199.158,27.167h-33c-0.829,0-1.5-0.671-1.5-1.5s0.671-1.5,1.5-1.5h33c0.829,0,1.5,0.671,1.5,1.5
		S199.987,27.167,199.158,27.167z"/>
	<circle style="fill:#1E252B;" cx="153.158" cy="25.667" r="2.5"/>
	<polygon style="opacity:0.1;fill:#FFFFFF;enable-background:new    ;" points="77.477,267.998 77.477,321.65 210.7,321.65 
		287.84,244.51 287.84,57.635 	"/>
</g>
<g>
</g>
<g>
</g>
<g>
</g>
<g>
</g>
<g>
</g>
<g>
</g>
<g>
</g>
<g>
</g>
<g>
</g>
<g>
</g>
<g>
</g>
<g>
</g>
<g>
</g>
<g>
</g>
<g>
</g>
</svg>
